<svg width="25" height="25" viewBox="0 0 25 25" fill="none" xmlns="http://www.w3.org/2000/svg">
<g clip-path="url(#clip0_303_8980)">
<path d="M12.4631 0.108398C7.46313 0.108398 3.46313 4.1084 3.46313 9.1084C3.46313 15.3084 6.86313 20.8084 11.9631 24.0084C12.2631 24.2084 12.6631 24.2084 13.0631 24.0084C18.0631 20.7084 21.4631 15.3084 21.4631 9.1084C21.4631 4.1084 17.4631 0.108398 12.4631 0.108398ZM12.4631 13.1084C10.2631 13.1084 8.46313 11.3084 8.46313 9.1084C8.46313 6.9084 10.2631 5.1084 12.4631 5.1084C14.6631 5.1084 16.4631 6.9084 16.4631 9.1084C16.4631 11.3084 14.6631 13.1084 12.4631 13.1084Z" fill="#544741"/>
</g>
<defs>
<clipPath id="clip0_303_8980">
<rect width="24" height="24" fill="white" transform="translate(0.463135 0.108398)"/>
</clipPath>
</defs>
</svg>
