<svg width="17" height="18" viewBox="0 0 17 18" fill="none" xmlns="http://www.w3.org/2000/svg">
<path d="M8.37191 17.4743C7.21913 17.4743 6.1358 17.2555 5.12191 16.818C4.10802 16.3805 3.22607 15.7868 2.47607 15.0368C1.72607 14.2868 1.13232 13.4048 0.694824 12.391C0.257324 11.3771 0.0385742 10.2937 0.0385742 9.14095C0.0385742 7.98817 0.257324 6.90484 0.694824 5.89095C1.13232 4.87706 1.72607 3.99512 2.47607 3.24512C3.22607 2.49512 4.10802 1.90137 5.12191 1.46387C6.1358 1.02637 7.21913 0.807617 8.37191 0.807617C9.52468 0.807617 10.608 1.02637 11.6219 1.46387C12.6358 1.90137 13.5177 2.49512 14.2677 3.24512C15.0177 3.99512 15.6115 4.87706 16.049 5.89095C16.4865 6.90484 16.7052 7.98817 16.7052 9.14095C16.7052 10.2937 16.4865 11.3771 16.049 12.391C15.6115 13.4048 15.0177 14.2868 14.2677 15.0368C13.5177 15.7868 12.6358 16.3805 11.6219 16.818C10.608 17.2555 9.52468 17.4743 8.37191 17.4743ZM7.47607 16.2035V14.4951C6.98996 14.4951 6.58024 14.3146 6.24691 13.9535C5.91357 13.5923 5.74691 13.1687 5.74691 12.6826V11.766L1.47607 7.49512C1.40663 7.77289 1.35802 8.0472 1.33024 8.31803C1.30246 8.58887 1.28857 8.86317 1.28857 9.14095C1.28857 10.9465 1.87538 12.5229 3.04899 13.8701C4.2226 15.2173 5.6983 15.9951 7.47607 16.2035ZM13.6011 13.9535C13.9066 13.6201 14.174 13.266 14.4032 12.891C14.6323 12.516 14.8268 12.1236 14.9865 11.7139C15.1462 11.3041 15.2643 10.884 15.3407 10.4535C15.417 10.0229 15.4552 9.58539 15.4552 9.14095C15.4552 7.66873 15.0525 6.33192 14.2469 5.13053C13.4414 3.92914 12.365 3.05067 11.0177 2.49512V2.87012C11.0177 3.35623 10.8511 3.77984 10.5177 4.14095C10.1844 4.50206 9.77469 4.68262 9.28857 4.68262H7.47607V6.49512C7.47607 6.73123 7.38232 6.92567 7.19482 7.07845C7.00732 7.23123 6.79552 7.30762 6.55941 7.30762H4.83024V9.14095H10.2052C10.4414 9.14095 10.6358 9.23123 10.7886 9.41178C10.9414 9.59234 11.0177 9.80067 11.0177 10.0368V12.6826H11.9136C12.3164 12.6826 12.6705 12.8007 12.9761 13.0368C13.2816 13.2729 13.49 13.5785 13.6011 13.9535Z" fill="black"/>
</svg>
