<svg width="29" height="29" viewBox="0 0 29 29" fill="none" xmlns="http://www.w3.org/2000/svg">
<path d="M23.5969 18.4564C22.7985 17.6361 20.5289 16.0994 19.0414 16.0994C18.6969 16.0994 18.3961 16.176 18.15 16.3346C17.4227 16.7994 16.843 17.1604 16.5641 17.1604C16.411 17.1604 16.2469 17.0236 15.886 16.7119L15.8258 16.6572C14.825 15.7877 14.6117 15.5635 14.2235 15.1588L14.125 15.0549C14.0539 14.9838 13.9938 14.9182 13.9336 14.858C13.5946 14.508 13.3485 14.2564 12.4789 13.2721L12.4406 13.2283C12.025 12.758 11.7516 12.4518 11.7352 12.2275C11.7188 12.0088 11.9102 11.6533 12.3969 10.9916C12.9875 10.1932 13.0094 9.20879 12.468 8.06582C12.036 7.16348 11.3305 6.29941 10.7071 5.53926L10.6524 5.47363C10.1164 4.81738 9.49299 4.48926 8.79846 4.48926C8.02737 4.48926 7.38752 4.90488 7.04846 5.12363C7.02112 5.14004 6.99377 5.16191 6.96643 5.17832C6.20627 5.65957 5.65393 6.32129 5.44612 6.99395C5.1344 8.00566 4.92659 9.31816 6.41955 12.0471C7.71018 14.4096 8.88049 15.9955 10.7399 17.9041C12.4899 19.6979 13.2664 20.2775 15.0055 21.5354C16.9414 22.9354 18.8008 23.7393 20.1024 23.7393C21.311 23.7393 22.2625 23.7393 23.6188 22.1041C25.0406 20.3869 24.45 19.3369 23.5969 18.4564Z" fill="#544741"/>
</svg>
